<svg width="189" height="52" viewBox="0 0 189 52" fill="none" xmlns="http://www.w3.org/2000/svg">
<g clip-path="url(#clip0)">
<path d="M-39 0H300.632V51.976H-39V0ZM-37.655 1.34998V50.626H299.287V1.34998H-37.655ZM-34.965 4.05005H296.597V47.25H-34.965V4.05005ZM-33.62 5.40002V45.9H295.252V5.40002H-33.62ZM-26.22 8.09998C-14.095 8.03898 -8.32999 16.838 -0.662994 21.6V22.95C-1.2413 23.0459 -1.78785 23.2802 -2.2562 23.6328C-2.72454 23.9854 -3.10082 24.4458 -3.353 24.975H-4.026V24.3C-10.568 20.147 -15.726 12.678 -25.547 12.149V13.499C-26.625 16.094 -21.977 19.719 -22.857 22.274L-24.202 24.3H-24.874V23.625C-28.05 21.457 -30.098 17.345 -30.254 12.15C-28.93 10.92 -27.45 9.43098 -26.222 8.09998H-26.22ZM0.00900269 8.09998C11.28 9.29998 16.15 17.267 24.22 21.6V22.275H23.541L21.523 24.975H20.851V24.3C16.626 21.718 5.98801 10.514 -1.34299 12.825C-3.30099 13.442 -4.01699 14.998 -6.72299 15.525C-7.57699 14.388 -8.55799 13.961 -9.41299 12.825C-6.05232 11.7349 -2.87624 10.1418 0.00701904 8.09998H0.00900269ZM22.875 8.09998C35.822 7.94598 40.649 16.476 48.432 21.6V22.275H47.759L45.742 24.975H45.069V24.3C40.876 21.494 30.932 10.249 23.548 12.149C21.215 12.749 19.808 14.355 16.823 14.849L14.805 12.149L22.875 8.09998ZM117.703 8.09998C128.774 8.71198 134.157 16.818 141.242 21.6V22.275H140.569C139.483 23.838 139.587 23.863 137.206 24.301C134.427 20.01 126.939 14.437 121.738 12.826C117.872 11.626 113.127 15.059 112.322 14.176C110.25 13.476 110.359 13.524 109.632 11.476C111.673 10.898 115.924 9.44398 117.701 8.09998H117.703ZM166.126 8.09998C177.435 8.72598 181.91 16.747 188.992 21.6V22.275H188.319L186.974 24.301C185.794 23.875 186.321 24.171 185.629 23.626C179.186 21.236 175.071 9.84505 164.108 12.826C162.318 13.313 161.189 14.462 158.728 14.851C157.873 13.714 156.892 13.288 156.038 12.151C158.76 11.517 163.883 9.79898 166.124 8.09998H166.126ZM234.726 8.09998C242.547 8.08298 257.783 17.63 259.61 22.95H258.937C257.845 23.959 257.576 23.997 255.574 24.301C252.558 19.744 243.451 13.301 237.415 12.15C234.471 11.59 229.858 16.15 228.672 14.85C226.962 13.981 226.74 14.109 225.982 12.15C228.492 11.038 232.463 9.81498 234.723 8.09998H234.726ZM257.592 8.09998C267.219 7.72498 272.233 13.03 277.092 17.55C278.868 19.201 282.105 19.8 281.127 22.275C280.188 23.629 280.222 23.67 278.437 24.301C275.652 20.001 267.542 13.668 262.296 12.15C258.685 11.106 253.973 15.378 252.881 14.175C251.171 13.306 250.949 13.434 250.191 11.475L252.209 10.8C253.607 9.56205 256.108 9.27898 257.59 8.09998H257.592ZM48.432 8.77502C59.716 9.08602 64.332 17.489 71.971 21.6V22.275H71.299L69.281 24.975H68.609V24.3C63.445 21.209 59.033 15.58 53.14 13.5C49.125 12.082 43.905 15.733 43.052 14.85C42.3272 14.6755 41.6498 14.343 41.0685 13.8762C40.4871 13.4095 40.016 12.82 39.689 12.15C42.065 11.605 46.503 10.239 48.43 8.77502H48.432ZM71.298 8.77502C83.898 8.62602 88.004 16.658 95.509 21.6V22.275H94.836C93.75 23.838 93.854 23.863 91.473 24.301C89.484 21.179 78.007 11.271 71.973 12.826C70.048 13.326 67.953 14.873 65.92 15.526C65.2203 14.6226 64.2915 13.9231 63.23 13.5V12.15C66.0952 11.5049 68.8252 10.3626 71.296 8.77502H71.298ZM93.492 8.77502C106.766 8.52902 110.692 16.368 118.376 21.6V22.95C116.287 23.522 116.554 24.267 115.013 23.625C109.145 21.47 104.003 10.509 94.837 12.825C93.06 13.274 91.905 14.467 89.457 14.85C88.4855 14.0278 87.5856 13.1246 86.767 12.15C89.2065 11.4737 91.4903 10.3272 93.49 8.77502H93.492ZM139.897 8.77502C153.188 8.52002 157.697 16.365 165.453 21.6V22.95C163.502 23.514 163.722 23.889 161.418 24.301C158.504 19.88 150.748 14.446 145.277 12.826C141.415 11.682 136.997 16.099 135.861 14.851C134.151 13.982 133.929 14.11 133.171 12.151C135.593 11.429 137.869 10.2862 139.895 8.77502H139.897ZM188.997 8.77502C200.042 9.08902 204.39 17.57 211.863 21.6C210.737 23.364 210.407 23.837 207.828 24.3C205.11 20.682 198.118 15.066 193.705 13.5C189.761 12.1 184.581 15.874 183.617 14.85C182.521 14.1732 181.6 13.2483 180.927 12.15C183.125 11.551 187.166 10.173 188.99 8.77502H188.997ZM209.173 8.77502C220.881 8.54102 229.122 16.075 234.73 22.275H234.057C233.426 22.9904 232.752 23.667 232.039 24.301C230.859 23.875 231.386 24.171 230.694 23.626C224.889 21.5 219.394 10.703 210.518 12.826C208.753 13.248 207.575 14.471 205.138 14.851C204.284 13.714 203.302 13.288 202.448 12.151C204.916 11.5528 207.214 10.3981 209.167 8.77502H209.173ZM282.48 8.77502C284.964 8.72552 287.446 8.95184 289.88 9.44995C290.46 10.2781 290.913 11.1882 291.225 12.15C294.754 17.645 280.869 32.501 277.102 33.75C276.248 32.613 275.266 32.187 274.412 31.05C279.518 27.738 286.8 20.65 287.863 13.5C286.342 13.0159 284.751 12.7878 283.155 12.825C281.498 14.3798 279.366 15.3311 277.102 15.525C276.248 14.388 275.266 13.961 274.412 12.825C277.31 11.9418 280.036 10.5724 282.474 8.77502H282.48ZM8.08002 16.875L11.443 18.9C11.019 20.084 11.313 19.556 10.771 20.25C7.371 23.842 -1.984 32.188 -6.715 33.75C-7.569 32.613 -8.55 32.187 -9.405 31.05C-4.626 28.275 4.841 21.152 8.077 16.876L8.08002 16.875ZM32.964 16.875L36.327 18.9C35.903 20.084 36.197 19.556 35.654 20.25L18.168 34.425C16.668 33.7816 15.3 32.8661 14.133 31.725H15.478C19.768 25.486 28.383 22.851 32.961 16.876L32.964 16.875ZM80.042 16.875L83.405 18.9V20.25C78.958 22.834 69.351 30.291 66.592 34.425H65.919V33.75C64.209 32.881 63.987 33.009 63.229 31.05C67.672 28.466 77.28 21.009 80.041 16.876L80.042 16.875ZM102.908 16.875C104.189 17.6705 105.54 18.3483 106.943 18.9C106.256 19.443 106.759 19.14 105.598 19.575C101.629 25.575 94.451 28.8 90.13 34.425H89.458V33.75C88.3924 33.3348 87.4617 32.6341 86.768 31.725C92.8481 27.5959 98.2856 22.5924 102.905 16.876L102.908 16.875ZM149.313 16.875C150.729 17.3978 152.083 18.077 153.348 18.9C152.737 19.632 153.401 18.957 152.676 19.575C150.527 22.703 138.708 33.266 134.517 33.75C133.937 32.9218 133.484 32.0118 133.172 31.05C137.441 28.334 146.575 20.964 149.311 16.876L149.313 16.875ZM174.197 16.875L177.56 18.9C177.136 20.084 177.43 19.556 176.887 20.25C173.399 23.971 163.587 32.821 158.729 34.425C157.874 33.288 156.893 32.862 156.039 31.725C160.82 29.336 171.058 21.036 174.195 16.876L174.197 16.875ZM242.797 16.875C243.631 16.9867 244.429 17.2882 245.128 17.7562C245.828 18.2243 246.411 18.8464 246.832 19.575C242.893 20.902 231.58 31.01 229.346 34.425H228.673V33.75C226.963 32.881 226.741 33.009 225.983 31.05C232.146 27.0317 237.792 22.2713 242.794 16.876L242.797 16.875ZM55.831 17.55C57.741 18.033 58.178 18.281 59.194 19.575H59.867C60.533 20.257 59.204 20.242 59.194 20.25C54.369 25.322 47.299 28.85 43.053 34.425H42.381V33.75C40.671 32.881 40.449 33.009 39.691 31.05C43.295 29.823 53.533 20.607 55.828 17.55H55.831ZM125.775 17.55H127.793C128.292 18.378 128.985 19.0726 129.811 19.575V20.25H129.139C127.069 23.25 115.381 33.671 111.653 34.425C110.966 33.882 111.469 34.185 110.308 33.75L109.635 31.725C113.995 28.951 122.972 21.735 125.772 17.55H125.775ZM195.719 17.55H197.737C198.601 18.788 199.06 18.706 199.755 20.25C195.461 22.919 187 30.282 184.287 34.425C183.006 33.6295 181.655 32.9514 180.252 32.399V31.725H180.925C184.819 26.228 191.971 23.197 195.716 17.55H195.719ZM218.585 17.55H220.603C221.102 18.378 221.795 19.0726 222.621 19.575C222.01 20.306 222.673 19.632 221.948 20.25C219.711 23.597 209.021 33.06 205.134 34.425C204.217 33.019 203.193 32.164 203.116 31.725C207.128 26.086 214.716 23.392 218.582 17.55H218.585ZM267.685 17.55C269.261 18.0438 270.662 18.9811 271.72 20.25H271.041C266.652 26.382 257.885 28.927 253.555 35.1C252.274 34.3045 250.923 33.6267 249.52 33.075V32.399H250.192C254.566 26.3 263.35 23.721 267.678 17.55H267.685ZM-16.799 18.225H-14.109C-13.245 19.463 -12.786 19.38 -12.091 20.925C-15.807 22.137 -27.308 34.575 -25.542 38.475C-24.589 39.124 -23.342 39.134 -21.507 39.15C-19.5697 37.5001 -17.2626 36.3423 -14.782 35.775C-13.843 37.129 -13.877 37.169 -12.092 37.8C-12.703 38.531 -12.04 37.857 -12.765 38.475C-16.134 42.075 -21.871 43.859 -28.233 42.525C-28.8129 41.6968 -29.2662 40.7867 -29.578 39.825C-33.48 33.626 -19.288 21.823 -16.807 18.226L-16.799 18.225ZM-17.471 27C-6.34898 33.824 -6.555 40.588 8.758 36.45C9.45785 37.3529 10.3867 38.0522 11.448 38.475V39.15H10.776C8.267 41.78 4.40402 43.135 -0.656982 43.2C-6.25898 39.086 -21.774 34.329 -17.479 27.001L-17.471 27ZM4.72302 27C10.891 29.131 15.088 35.675 20.864 38.475C25.864 40.897 31.376 36.346 33.642 37.125C34.832 37.465 37.58 38.559 36.332 39.15C26.319 49.205 7.53201 37.114 2.03201 29.025C3.01564 28.4777 3.91856 27.7965 4.715 27.001L4.72302 27ZM28.934 27H30.941C33.915 31.348 42.697 37.247 48.427 38.475C52.142 39.275 54.094 36.957 57.17 36.45C57.9738 37.2402 58.8783 37.9211 59.86 38.475V39.15C56.3 40.228 52.56 44.081 47.082 42.525C43.772 41.584 27.64 31.941 26.906 29.699L28.934 27ZM53.146 27C59.446 29.111 67.146 41.093 76.685 38.475C78.397 38.005 79.059 36.875 81.393 36.45C82.31 37.856 83.334 38.711 83.411 39.15C74.64 48.209 62.242 37.985 56.511 33.75C55.517 33.016 51.492 31.345 51.131 30.375C50.607 29 52.673 27.797 53.141 27.001L53.146 27ZM76.685 27C83.4 28.927 87.362 36.29 94.171 38.475C98.171 39.758 102.314 36.153 103.587 37.125L106.277 39.15V39.825C103.303 40.725 99.977 43.84 96.189 43.2C86.269 41.527 81.367 32.21 74.668 29.7L76.685 27ZM100.224 27C104.878 29.483 113.258 40.73 120.4 39.15C122.709 38.639 124.167 36.936 127.125 36.45C127.838 37.084 128.511 37.7602 129.143 38.475H129.815V39.15H129.143C118.957 49.358 102.41 36.664 97.534 29.025C98.5961 28.6085 99.5234 27.9083 100.215 27.001L100.224 27ZM123.763 27C129.441 29.038 132.977 35.4 138.563 37.8C142.144 39.337 149.195 36.5 149.996 37.125C151.766 37.637 151.596 37.934 153.359 38.475V39.15H152.687C143.121 48.765 125.94 36.572 121.078 29.025C122.059 28.4771 122.96 27.7959 123.754 27.001L123.763 27ZM145.957 27C152.628 28.905 156.771 36.037 163.443 38.475C168.222 40.221 172.356 36.225 174.876 37.125C176.948 37.825 176.839 37.778 177.566 39.825C173.982 40.905 170.292 44.736 164.788 43.2C157.959 41.298 142.841 32.358 145.948 27.001L145.957 27ZM170.841 27C177.518 29.356 181.454 36.829 189 38.475C192.258 39.186 194.19 36.892 197.07 36.45C197.77 37.3529 198.699 38.0522 199.76 38.475V39.15H199.087C190.267 48.034 172.387 35.269 168.15 29.025C169.213 28.6087 170.14 27.9085 170.832 27.001L170.841 27ZM193.707 27C199.83 29.254 203.175 36.646 209.848 38.475C214.39 39.72 216.799 36.817 220.609 36.45C221.249 37.514 223.052 38.474 221.954 39.15C218.954 42.083 214.626 42.625 208.503 42.525C203.495 38.155 189.674 33.901 193.698 27.001L193.707 27ZM216.573 27C223.413 29.43 227.243 37.048 234.732 39.15C238.232 40.133 242.811 36.123 243.475 37.125L246.838 39.15C246.151 39.693 246.654 39.39 245.493 39.825C236.283 49.077 218.075 35.437 213.884 29.025C214.461 28.9278 215.005 28.6931 215.472 28.3408C215.939 27.9885 216.314 27.5289 216.565 27.001L216.573 27ZM239.439 27C245.089 29.086 254.098 41.933 262.978 39.15C264.978 38.523 266.729 36.527 269.031 35.775C269.849 36.7502 270.749 37.6535 271.721 38.475H271.041C262.461 50.175 241.762 36.847 236.741 29.025C237.806 28.6099 238.737 27.9097 239.431 27.001L239.439 27ZM264.996 27C270.418 28.6 280.86 40.917 286.517 38.475C288.227 37.492 287.276 38.621 287.862 36.45C286.372 34.2899 285.024 32.0351 283.827 29.7C284.888 29 286.566 26.575 287.19 27.675C289.948 30.307 291.82 33.812 291.898 39.15C291.079 40.1246 290.18 41.0278 289.208 41.85C283.055 46.777 265.533 32.617 262.308 29.025C262.884 28.9276 263.429 28.6927 263.895 28.3405C264.362 27.9882 264.737 27.5287 264.988 27.001L264.996 27Z" fill="#DEDDD6"/>
</g>
<defs>
<clipPath id="clip0">
<rect x="-39" width="339.632" height="51.976" fill="white"/>
</clipPath>
</defs>
</svg>
